<!DOCTYPE svg PUBLIC "-//W3C//DTD SVG 20010904//EN" "http://www.w3.org/TR/2001/REC-SVG-20010904/DTD/svg10.dtd">
<svg version="1.0" xmlns="http://www.w3.org/2000/svg" width="280px" height="280px" viewBox="0 0 2800 2800" preserveAspectRatio="xMidYMid meet">
<g id="layer101" fill="#ffffff" stroke="none">
<path d="M1155 2771 c-308 -57 -599 -220 -799 -449 -314 -360 -424 -856 -291 -1317 34 -119 128 -310 203 -415 216 -301 557 -510 922 -565 273 -42 558 0 806 119 246 118 427 276 573 501 159 243 229 503 218 805 -14 367 -146 670 -407 930 -196 197 -416 318 -690 382 -127 29 -401 34 -535 9z m450 -296 c213 -40 399 -140 561 -300 437 -431 439 -1113 5 -1546 -340 -340 -847 -420 -1276 -201 -187 95 -375 284 -470 472 -215 427 -134 933 204 1271 260 260 618 372 976 304z"/>
</g>
<g id="layer102" fill="#e9500e" stroke="none">
<path d="M1168 1832 l-388 -387 0 -45 0 -45 388 -387 387 -388 48 0 c40 0 54 5 78 29 23 23 29 38 29 72 l0 43 -330 331 c-181 182 -330 335 -330 340 0 6 142 152 316 325 173 173 322 327 330 342 41 79 -10 158 -103 158 -36 0 -52 -14 -425 -388z"/>
</g>
<g id="layer103" fill="#f3901d" stroke="none">
<path d="M1134 2202 c-71 -57 -55 -132 48 -229 l34 -33 77 78 78 78 -65 62 c-59 57 -68 62 -108 62 -26 0 -52 -7 -64 -18z"/>
<path d="M1500 1805 l-75 -75 165 -165 165 -165 -165 -165 -165 -165 75 -75 c41 -41 79 -75 85 -75 14 0 410 399 424 427 6 12 11 39 11 59 0 36 -11 49 -217 256 -120 120 -220 218 -223 218 -3 0 -39 -34 -80 -75z"/>
<path d="M1164 808 c-57 -59 -74 -88 -74 -121 0 -61 44 -106 103 -107 49 0 81 18 137 74 l44 46 -74 75 c-41 41 -79 75 -85 75 -6 0 -29 -19 -51 -42z"/>
</g>


</svg>